<svg width="800" height="800" viewBox="0 -0.5 24 24" fill="none" xmlns="http://www.w3.org/2000/svg"><path fill-rule="evenodd" clip-rule="evenodd" d="M12.205 0a11.499 11.499 0 0 0-3.636 22.412c.58.106.784-.254.784-.558V19.9c-3.212.699-3.89-1.546-3.89-1.546a3.08 3.08 0 0 0-1.277-1.687c-1.038-.706.085-.706.085-.706a2.42 2.42 0 0 1 1.757 1.186 2.457 2.457 0 0 0 3.346.96c.044-.58.295-1.127.706-1.539-2.555-.29-5.238-1.278-5.238-5.647a4.45 4.45 0 0 1 1.18-3.085 4.2 4.2 0 0 1 .112-3.042s.967-.31 3.162 1.179a10.9 10.9 0 0 1 5.76 0c2.196-1.49 3.156-1.18 3.156-1.18.423.955.473 2.033.14 3.022a4.45 4.45 0 0 1 1.18 3.085c0 4.419-2.69 5.386-5.252 5.647.556.559.842 1.331.784 2.117v3.156c0 .374.204.663.79.55A11.499 11.499 0 0 0 12.204 0" fill="#758CA3"/></svg>